<?xml version="1.0" encoding="UTF-8"?>
<svg xmlns="http://www.w3.org/2000/svg" xmlns:xlink="http://www.w3.org/1999/xlink" version="1.1" width="512" height="512" x="0" y="0" viewBox="0 0 24 24" style="enable-background:new 0 0 512 512" xml:space="preserve" class="">
  <g>
    <g data-name="Layer 2">
      <circle cx="12" cy="12" r="10" fill="#f3ba21" opacity="1" data-original="#2196f3" class=""/>
      <g fill="#fff">
        <circle cx="12" cy="7.38" r="1.25" fill="#ffffff" opacity="1" data-original="#ffffff" class=""/>
        <path d="M12 17.88a1 1 0 0 1-1-1v-5a1 1 0 0 1 0-2h1a1 1 0 0 1 1 1v6a1 1 0 0 1-1 1z" fill="#ffffff" opacity="1" data-original="#ffffff" class=""/>
        <path d="M13 17.88h-2a1 1 0 0 1 0-2h2a1 1 0 1 1 0 2z" fill="#ffffff" opacity="1" data-original="#ffffff" class=""/>
      </g>
    </g>
  </g>
</svg>
