<?xml version="1.0" encoding="UTF-8"?>
<svg xmlns="http://www.w3.org/2000/svg" xmlns:xlink="http://www.w3.org/1999/xlink" version="1.1" width="512" height="512" x="0" y="0" viewBox="0 0 24 24" style="enable-background:new 0 0 512 512" xml:space="preserve" class="">
  <g>
    <path fill="#538ff5" fill-rule="evenodd" d="M2 5a3 3 0 0 1 3-3h14a3 3 0 0 1 3 3v14a3 3 0 0 1-3 3H5a3 3 0 0 1-3-3zm9 5a1 1 0 1 0 0 2v3a1 1 0 1 0 0 2h2a1 1 0 1 0 0-2v-4a1 1 0 0 0-1-1zm0-2a1 1 0 1 1 2 0 1 1 0 0 1-2 0z" clip-rule="evenodd" opacity="1" data-original="#000000" class=""/>
  </g>
</svg>
