<?xml version="1.0" encoding="UTF-8"?>
<svg xmlns="http://www.w3.org/2000/svg" xmlns:xlink="http://www.w3.org/1999/xlink" version="1.1" width="512" height="512" x="0" y="0" viewBox="0 0 110 110" style="enable-background:new 0 0 512 512" xml:space="preserve" class="">
  <g>
    <defs>
      <clipPath id="c">
        <use xlink:href="#a"/>
      </clipPath>
      <clipPath id="d">
        <use xlink:href="#b"/>
      </clipPath>
      <path id="a" d="m63.133 28.962-21.14-12.285 2.132 1.215 21.141 12.286-2.133-1.216z" fill="#000000" opacity="1" data-original="#000000"/>
      <path id="b" d="M53.903 36.738 32.762 24.453c.833-1.437 1.298-2.241 2.125-3.674l21.141 12.286c-.827 1.432-1.292 2.237-2.125 3.673z" fill="#000000" opacity="1" data-original="#000000"/>
    </defs>
    <path fill="#181e1e" d="m67.69 79.16-.028 10.124-12.835 7.459.029-10.124z" opacity="1" data-original="#181e1e"/>
    <path fill="#181e1e" d="m54.856 86.62-.029 10.123-44.16-25.496.03-10.123z" opacity="1" data-original="#181e1e"/>
    <path fill="#181e1e" d="m67.69 79.16-12.834 7.46-44.16-25.496 12.835-7.46z" opacity="1" data-original="#181e1e"/>
    <path fill="#31363b" d="m40.67 8.55 3.304 1.886 51.463 29.907L40.67 8.55z" opacity="1" data-original="#31363b"/>
    <path fill="#2a2f33" d="M58.562 96.606 7.1 66.699 7 31.782 58.463 61.69z" opacity="1" data-original="#2a2f33" class=""/>
    <path fill="#3b4146" d="M58.463 61.69 7 31.781l3.285-5.689L61.748 56z" opacity="1" data-original="#3b4146"/>
    <path fill="#444b52" d="M61.748 56 10.285 26.093 40.67 8.55l51.463 29.907z" opacity="1" data-original="#444b52"/>
    <path fill="#bcc1cb" d="m89.947 82.288-5.226-3.037c.346.2.8.137 1.255-.125.454-.262.908-.724 1.254-1.324l5.226 3.037c-.346.6-.8 1.062-1.254 1.324-.454.262-.908.325-1.255.125z" opacity="1" data-original="#bcc1cb"/>
    <path fill="#ccd0d9" d="m92.456 80.84-5.226-3.038c.692-1.199.689-2.493-.008-2.89l5.226 3.037c.697.397.7 1.692.008 2.89z" opacity="1" data-original="#ccd0d9"/>
    <path fill="#bcc1cb" d="m93.474 76.18-5.226-3.038c.346.2.8.137 1.255-.125.454-.262.908-.724 1.254-1.323l5.226 3.037c-.346.6-.8 1.061-1.254 1.323-.454.263-.908.325-1.255.126z" opacity="1" data-original="#bcc1cb"/>
    <path fill="#4f575f" d="m95.983 74.73-5.226-3.036c.692-1.2.688-2.494-.008-2.891l5.226 3.037c.697.397.7 1.692.008 2.89z" opacity="1" data-original="#4f575f"/>
    <path fill="#3d4449" d="m93.394 47.853-5.227-3.037c.347.2.801.137 1.255-.125s.908-.724 1.254-1.324l5.227 3.038c-.346.6-.8 1.06-1.254 1.323-.454.262-.909.325-1.255.125z" opacity="1" data-original="#3d4449" class=""/>
    <path fill="#4f575f" d="m95.903 46.405-5.227-3.038c.693-1.198.689-2.493-.008-2.89l5.227 3.037c.696.397.7 1.692.008 2.89z" opacity="1" data-original="#4f575f"/>
    <path fill="#3d4449" d="m63.598 97.501-5.227-3.037c.347.2.802.136 1.257-.126.455-.263.91-.725 1.256-1.325l5.226 3.037c-.346.6-.8 1.062-1.255 1.325-.455.263-.91.325-1.257.126z" opacity="1" data-original="#3d4449" class=""/>
    <path fill="#4f575f" d="m66.11 96.05-5.226-3.037c.692-1.199.688-2.493-.008-2.89l5.226 3.037c.697.397.7 1.692.008 2.89z" opacity="1" data-original="#4f575f"/>
    <path fill="#ebeef4" d="m82.73 49.28 5.225 3.038c2.53 1.47 4.099 4.596 4.111 9.039.025 8.947-6.264 19.84-14.05 24.336l-5.227-3.037c7.787-4.496 14.076-15.389 14.05-24.337-.012-4.442-1.58-7.568-4.11-9.039z" opacity="1" data-original="#ebeef4" class=""/>
    <path fill="#ebeef4" d="m67.988 86.676-5.226-3.037c2.562 1.489 6.11 1.279 10.027-.983l5.227 3.037c-3.918 2.262-7.466 2.472-10.028.983z" opacity="1" data-original="#ebeef4" class=""/>
    <path fill="#3d4449" d="m89.844 45.83-5.227-3.037c.347.2.801.137 1.256-.125 1.59-.918 2.358-3.58 1.245-4.214l5.227 3.037c1.128.643.321 3.31-1.246 4.214-.454.262-.908.325-1.255.125z" opacity="1" data-original="#3d4449" class=""/>
    <path fill="#dbdfe6" d="m88.859 34.5 8.744 5.041L88.86 34.5z" opacity="1" data-original="#dbdfe6"/>
    <path fill="#3d4449" d="m60.048 95.478-5.226-3.037c.346.2.8.137 1.255-.125l5.226 3.037c-.454.262-.908.325-1.255.125z" opacity="1" data-original="#3d4449" class=""/>
    <path fill="#4f575f" d="m61.303 95.353-5.226-3.037c1.591-.92 2.356-3.582 1.246-4.215l5.226 3.038c1.128.643.321 3.31-1.246 4.214z" opacity="1" data-original="#4f575f"/>
    <path fill="#bcc1cb" d="m82.072 50.41 5.227 3.038c-2.394-1.391-5.71-1.195-9.372.92L72.7 51.33c3.662-2.114 6.978-2.31 9.372-.92z" opacity="1" data-original="#bcc1cb"/>
    <path fill="#bcc1cb" d="m68.645 85.545-5.226-3.037c-2.364-1.374-3.83-4.296-3.84-8.45-.025-8.356 5.85-18.53 13.121-22.728l5.227 3.037c-7.272 4.199-13.146 14.373-13.122 22.73.011 4.153 1.477 7.074 3.84 8.448z" opacity="1" data-original="#bcc1cb"/>
    <path fill="#4f575f" d="m59.968 67.152-5.227-3.037c.347.199.801.137 1.255-.126 1.592-.918 2.357-3.58 1.246-4.214l5.227 3.038c1.128.642.32 3.309-1.246 4.214-.454.262-.909.324-1.255.125zM63.494 61.043l-5.226-3.037c.347.2.802.137 1.257-.126 1.589-.918 2.36-3.58 1.247-4.215L66 56.702c1.128.643.321 3.31-1.248 4.215-.455.263-.91.326-1.257.126z" opacity="1" data-original="#4f575f"/>
    <path fill="#dbdfe6" d="m94.085 37.536 3.518 2.005.106 37.18-3.496 6.054-32.356 18.68-3.52-2.002-.106-37.18 3.498-6.056zm-16.07 48.157c7.787-4.496 14.076-15.389 14.051-24.336-.025-8.944-6.355-12.552-14.142-8.056S63.85 68.688 63.877 77.631c.025 8.948 6.352 12.558 14.139 8.062M66.11 96.05c1.112-1.926.31-3.674-1.267-2.763-.455.263-.909.725-1.253 1.323-1.104 1.912-.325 3.683 1.265 2.765.454-.263.91-.725 1.255-1.325m-2.624-37.897c-1.103 1.91-.324 3.682 1.265 2.764 1.59-.917 2.361-3.58 1.248-4.215-.349-.198-.805-.135-1.26.128-.454.262-.908.724-1.253 1.323m28.97 22.686c1.11-1.922.312-3.674-1.265-2.764-.454.263-.908.724-1.252 1.323-1.113 1.927-.308 3.672 1.263 2.765.454-.262.908-.724 1.254-1.324m3.527-6.108c1.11-1.922.312-3.675-1.265-2.764-1.585.915-2.357 3.578-1.244 4.213.347.199.801.137 1.255-.126.454-.262.908-.724 1.254-1.323m-.08-28.326c1.11-1.922.312-3.675-1.266-2.764-.454.262-.907.723-1.252 1.322-1.112 1.927-.307 3.672 1.264 2.765.454-.262.908-.724 1.254-1.323m-6.067-3.465c-1.113 1.927-.308 3.672 1.263 2.765.454-.262.908-.724 1.254-1.323 1.11-1.922.312-3.675-1.266-2.764-.454.262-.907.723-1.251 1.322M61.303 95.353c.454-.262.908-.724 1.254-1.324 1.114-1.928.308-3.672-1.265-2.764-1.585.915-2.357 3.579-1.244 4.213.347.2.801.137 1.255-.125M59.96 64.26c-1.11 1.922-.31 3.675 1.264 2.766.454-.263.908-.724 1.254-1.324 1.114-1.929.308-3.672-1.266-2.764-.454.262-.907.724-1.252 1.322" opacity="1" data-original="#dbdfe6"/>
    <path fill="#ccd0d9" d="M77.927 54.367c-7.272 4.199-13.146 14.373-13.122 22.73.023 8.36 5.935 11.728 13.208 7.53 7.275-4.2 13.149-14.375 13.125-22.735-.024-8.356-5.936-11.725-13.211-7.525z" opacity="1" data-original="#ccd0d9"/>
    <path fill="#3d4449" d="M85.595 65.093c.014 4.839-3.387 10.732-7.6 13.163-4.201 2.426-7.632.493-7.646-4.357-.014-4.84 3.387-10.732 7.595-13.163 4.158-2.41 7.64-.53 7.651 4.357z" opacity="1" data-original="#3d4449" class=""/>
    <path fill="#4f575f" d="M81.568 63.562c.018 6.222-5.38 13.387-10.184 14.132-.654-.914-1.03-2.199-1.035-3.795-.018-6.193 5.33-13.357 10.18-14.137.659.914 1.034 2.199 1.04 3.8z" opacity="1" data-original="#4f575f"/>
    <path fill="#ccd0d9" d="m58.336 99.453-5.226-3.038-.106-37.18 5.227 3.038z" opacity="1" data-original="#ccd0d9"/>
    <path fill="#dbdfe6" d="m58.23 62.273-5.226-3.037 3.499-6.056 5.226 3.037z" opacity="1" data-original="#dbdfe6"/>
    <path fill="#ebeef4" d="m61.73 56.217-5.227-3.037L88.859 34.5l5.226 3.036zM80.735 63.926l20.906 12.149c-.846-.492-2.017-.423-3.309.323l-20.905-12.15c1.292-.745 2.463-.814 3.308-.322z" opacity="1" data-original="#ebeef4" class=""/>
    <path fill="#4f575f" d="m89.118 68.797 4.141 2.406c-.846-.491-2.017-.422-3.309.324L85.81 69.12c1.292-.746 2.463-.815 3.309-.323z" opacity="1" data-original="#4f575f"/>
    <path fill="#ebeef4" d="m95.052 87.418-20.905-12.15c-2.93-1.702-.81-8.658 3.28-11.02l20.905 12.15c-4.083 2.357-6.203 9.32-3.28 11.02z" opacity="1" data-original="#ebeef4" class=""/>
    <path fill="#3d4449" d="M86.67 82.546 82.53 80.14c-2.93-1.703-.81-8.659 3.28-11.02l4.141 2.407c-4.083 2.357-6.203 9.32-3.28 11.02z" opacity="1" data-original="#3d4449" class=""/>
    <path fill="#ccd0d9" d="M98.332 76.398c2.57-1.484 4.66-.289 4.668 2.663.008 2.953-2.068 6.55-4.637 8.032-2.57 1.484-4.66.293-4.668-2.66-.008-2.952 2.068-6.552 4.637-8.035z" opacity="1" data-original="#ccd0d9"/>
    <path fill="#4f575f" d="M101.38 79.993c.015 1.843-1.264 4.204-3.02 5.24-2.496 1.441-3.92-1.014-2.47-4.11.54-1.2 1.44-2.28 2.45-2.87 1.67-.96 3.04-.18 3.04 1.74z" opacity="1" data-original="#4f575f"/>
    <use xlink:href="#a" fill="#3d4449"/>
    <g clip-path="url(#c)">
      <path fill="#3d4449" d="m63.133 28.962-21.14-12.285 2.132 1.215 21.141 12.286-2.133-1.216" opacity="1" data-original="#3d4449" class=""/>
    </g>
    <path fill="#3d4449" d="M53.916 41.374 32.775 29.09l-.013-4.636 21.14 12.285z" opacity="1" data-original="#3d4449" class=""/>
    <use xlink:href="#b" fill="#3d4449"/>
    <g clip-path="url(#d)">
      <path fill="#2a3134" d="M53.903 36.738 32.762 24.453c.833-1.437 1.298-2.241 2.125-3.674l21.141 12.286c-.827 1.432-1.292 2.237-2.125 3.673" opacity="1" data-original="#2a3134"/>
    </g>
    <path fill="#3d4449" d="M56.028 33.065 34.887 20.779l7.105-4.102 21.141 12.285z" opacity="1" data-original="#3d4449" class=""/>
    <path fill="#181e1e" d="m63.133 28.962 2.133 1.216.013 4.636-11.363 6.56-.013-4.636c.833-1.436 1.298-2.24 2.125-3.673z" opacity="1" data-original="#181e1e"/>
    <path fill="#3d4449" d="M100.02 83.703c-.48.64-1.05 1.17-1.66 1.53-2.496 1.441-3.92-1.014-2.47-4.11z" opacity="1" data-original="#3d4449" class=""/>
    <path fill="#f04343" d="m31.215 72.987 1.41-.819c.432-.251 1.031-.215 1.691.166l-1.41.819c-.66-.381-1.259-.417-1.691-.166z" opacity="1" data-original="#f04343"/>
    <path fill="#f04343" d="m35.991 77.95-1.41.819c1.511-.878.395-4.422-1.674-5.616l1.41-.82c2.061 1.191 3.18 4.742 1.674 5.616z" opacity="1" data-original="#f04343"/>
    <path fill="#ff6161" d="M32.907 73.153c1.308.755 2.371 2.589 2.367 4.092-.004 1.511-1.074 2.114-2.383 1.358-1.308-.756-2.371-2.589-2.367-4.1.005-1.504 1.074-2.106 2.383-1.35z" opacity="1" data-original="#ff6161"/>
    <path fill="#40cf4c" d="m38.927 77.44 1.409-.82c.432-.25 1.032-.215 1.692.166l-1.41.82c-.66-.382-1.259-.418-1.691-.166z" opacity="1" data-original="#457aef" class=""/>
    <path fill="#40cf4c" d="m43.703 82.402-1.41.819c1.511-.878.395-4.421-1.675-5.616l1.41-.819c2.062 1.19 3.18 4.74 1.675 5.616z" opacity="1" data-original="#457aef" class=""/>
    <path fill="#4fff6f" d="M40.618 77.605c1.31.756 2.372 2.589 2.368 4.093-.005 1.51-1.074 2.113-2.383 1.357-1.309-.755-2.371-2.588-2.367-4.1.004-1.503 1.074-2.105 2.382-1.35z" opacity="1" data-original="#4f91ff" class=""/>
  </g>
</svg>
