<?xml version="1.0" encoding="UTF-8"?>
<svg xmlns="http://www.w3.org/2000/svg" xmlns:xlink="http://www.w3.org/1999/xlink" version="1.1" width="512" height="512" x="0" y="0" viewBox="0 0 64 64" style="enable-background:new 0 0 512 512" xml:space="preserve" class="">
  <g transform="matrix(1.1200000000000003,2.743208830090072e-16,-2.743208830090072e-16,1.1200000000000003,-3.8400000000000034,-3.840000000000032)">
    <path fill="#a3dfee" d="M28.5 12V8.5h7V12L42 22.5v8.524a2.782 2.782 0 0 1-.61 1.738 2.782 2.782 0 0 0 0 3.476 2.782 2.782 0 0 1 .61 1.738v18.288a3.618 3.618 0 0 1-2 3.236H24a3.618 3.618 0 0 1-2-3.236V37.976a2.782 2.782 0 0 1 .61-1.738 2.782 2.782 0 0 0 0-3.476 2.782 2.782 0 0 1-.61-1.738V22.5z" opacity="1" data-original="#a3dfee" class=""/>
    <path fill="#88cedc" d="M39.5 56.264V37.976a3.408 3.408 0 0 0-.457-1.738 3.531 3.531 0 0 1 0-3.476 3.408 3.408 0 0 0 .457-1.738V22.5L34.625 12V8.5h.875V12L42 22.5v8.524a2.782 2.782 0 0 1-.61 1.738 2.782 2.782 0 0 0 0 3.476 2.782 2.782 0 0 1 .61 1.738v18.288a3.618 3.618 0 0 1-2 3.236h-2a3.882 3.882 0 0 0 1.5-3.236z" opacity="1" data-original="#88cedc" class=""/>
    <path fill="#94daeb" d="M37 37.976a4.787 4.787 0 0 0-.305-1.738 5.106 5.106 0 0 1 0-3.476A4.787 4.787 0 0 0 37 31.024V22.5L33.75 12V8.5h.875V12L39.5 22.5v8.524a3.408 3.408 0 0 1-.457 1.738 3.531 3.531 0 0 0 0 3.476 3.408 3.408 0 0 1 .457 1.738v18.288A3.882 3.882 0 0 1 38 59.5h-2a4.813 4.813 0 0 0 1-3.236z" opacity="1" data-original="#94daeb" class=""/>
    <path fill="#bde8f2" d="M24.957 32.762a3.408 3.408 0 0 1-.457-1.738V22.5L29.375 12V8.5h.875V12L27 22.5v8.524a4.787 4.787 0 0 0 .305 1.738 5.106 5.106 0 0 1 0 3.476A4.787 4.787 0 0 0 27 37.976v18.288a4.813 4.813 0 0 0 1 3.236h-2a3.882 3.882 0 0 1-1.5-3.236V37.976a3.408 3.408 0 0 1 .457-1.738 3.531 3.531 0 0 0 0-3.476z" opacity="1" data-original="#bde8f2" class=""/>
    <path fill="#4e88e8" d="M22 22.5h20v8H22z" opacity="1" data-original="#4e88e8" class=""/>
    <path fill="#4173da" d="M39.5 22.5H42v8h-2.5z" opacity="1" data-original="#4173da" class=""/>
    <path fill="#477de0" d="M37 22.5h2.5v8H37z" opacity="1" data-original="#477de0" class=""/>
    <path fill="#6799eb" d="M24.5 22.5H27v8h-2.5z" opacity="1" data-original="#6799eb" class=""/>
    <path fill="#4e88e8" d="M28 8.5h8v-2a2 2 0 0 0-2-2h-4a2 2 0 0 0-2 2z" opacity="1" data-original="#4e88e8" class=""/>
    <path fill="#4173da" d="M33.5 4.5h.5a2 2 0 0 1 2 2v2h-1v-2c0-1.105-.672-2-1.5-2z" opacity="1" data-original="#4173da" class=""/>
    <path fill="#477de0" d="M33 4.5h.5c.828 0 1.5.895 1.5 2v2h-1v-2c0-1.105-.448-2-1-2z" opacity="1" data-original="#477de0" class=""/>
    <path fill="#6799eb" d="M30.5 4.5h.5c-.552 0-1 .895-1 2v2h-1v-2c0-1.105.672-2 1.5-2z" opacity="1" data-original="#6799eb" class=""/>
    <rect width="9" height="1" x="27.5" y="9.25" fill="#caecf4" rx=".5" opacity="1" data-original="#caecf4" class=""/>
  </g>
</svg>
